<svg xmlns="http://www.w3.org/2000/svg" viewBox="0 0 400 300" width="400" height="300">
  <rect width="400" height="300" fill="#1A1008"/>
  <rect x="0" y="0" width="400" height="4" fill="#D4AF37"/>
  <rect x="0" y="296" width="400" height="4" fill="#D4AF37"/>

  <!-- Assiette -->
  <ellipse cx="200" cy="228" rx="135" ry="16" fill="#2A2010" opacity="0.55"/>

  <!-- Pain du dessous (base) -->
  <path d="M75 195 Q200 185 325 195 L318 218 Q200 228 82 218 Z" fill="#C8843A"/>
  <!-- Grillé dessous -->
  <line x1="100" y1="208" x2="100" y2="220" stroke="#8B5010" stroke-width="2" opacity="0.5"/>
  <line x1="130" y1="206" x2="130" y2="220" stroke="#8B5010" stroke-width="2" opacity="0.5"/>
  <line x1="160" y1="205" x2="160" y2="220" stroke="#8B5010" stroke-width="2" opacity="0.5"/>
  <line x1="190" y1="204" x2="190" y2="220" stroke="#8B5010" stroke-width="2" opacity="0.5"/>
  <line x1="220" y1="205" x2="220" y2="220" stroke="#8B5010" stroke-width="2" opacity="0.5"/>
  <line x1="250" y1="206" x2="250" y2="220" stroke="#8B5010" stroke-width="2" opacity="0.5"/>
  <line x1="280" y1="207" x2="280" y2="220" stroke="#8B5010" stroke-width="2" opacity="0.5"/>
  <line x1="310" y1="209" x2="310" y2="220" stroke="#8B5010" stroke-width="2" opacity="0.5"/>

  <!-- Fromage fondu qui déborde -->
  <path d="M82 196 Q200 186 318 196 Q315 200 290 202 Q245 208 200 207 Q155 208 110 202 Q85 200 82 196 Z" fill="#F0D060" opacity="0.9"/>
  <!-- Coulures fromage -->
  <path d="M130 202 Q128 210 126 215" fill="none" stroke="#E8C840" stroke-width="4" stroke-linecap="round" opacity="0.8"/>
  <path d="M200 207 Q199 213 198 218" fill="none" stroke="#E8C840" stroke-width="3.5" stroke-linecap="round" opacity="0.75"/>
  <path d="M270 203 Q272 210 274 215" fill="none" stroke="#E8C840" stroke-width="4" stroke-linecap="round" opacity="0.8"/>

  <!-- Tranche de jambon -->
  <path d="M100 200 Q200 192 300 200 Q295 197 200 195 Q105 197 100 200 Z" fill="#C05840" opacity="0.85"/>

  <!-- Thon (texture) -->
  <path d="M110 198 Q145 193 180 196" fill="none" stroke="#A04830" stroke-width="2" opacity="0.5"/>
  <path d="M220 194 Q255 192 290 196" fill="none" stroke="#A04830" stroke-width="2" opacity="0.5"/>

  <!-- Pain du dessus -->
  <path d="M78 172 Q200 155 322 172 L318 196 Q200 186 82 196 Z" fill="#D4903A"/>
  <!-- Bord doré du dessus -->
  <path d="M78 172 Q200 155 322 172" fill="none" stroke="#E8A840" stroke-width="3" opacity="0.7"/>
  <!-- Lignes grillées sur le dessus -->
  <line x1="105" y1="174" x2="100" y2="192" stroke="#8B5010" stroke-width="2.5" opacity="0.55"/>
  <line x1="145" y1="170" x2="140" y2="190" stroke="#8B5010" stroke-width="2.5" opacity="0.55"/>
  <line x1="185" y1="168" x2="182" y2="188" stroke="#8B5010" stroke-width="2.5" opacity="0.55"/>
  <line x1="225" y1="168" x2="224" y2="188" stroke="#8B5010" stroke-width="2.5" opacity="0.55"/>
  <line x1="265" y1="170" x2="266" y2="190" stroke="#8B5010" stroke-width="2.5" opacity="0.55"/>
  <line x1="300" y1="174" x2="304" y2="192" stroke="#8B5010" stroke-width="2.5" opacity="0.55"/>

  <!-- Sésame sur le pain -->
  <ellipse cx="155" cy="165" rx="4" ry="2" fill="#F0E090" opacity="0.8" transform="rotate(-20,155,165)"/>
  <ellipse cx="200" cy="161" rx="4" ry="2" fill="#F0E090" opacity="0.75" transform="rotate(10,200,161)"/>
  <ellipse cx="248" cy="163" rx="4" ry="2" fill="#F0E090" opacity="0.8" transform="rotate(-15,248,163)"/>

  <!-- Texte -->
  <text x="200" y="256" font-family="Georgia,serif" font-size="17" font-weight="bold" fill="#D4AF37" text-anchor="middle">Panini</text>
  <rect x="175" y="262" width="50" height="1.5" fill="#D4AF37" opacity="0.5"/>
</svg>
